<?xml version="1.0" encoding="UTF-8" standalone="no"?>
<!-- Created with Inkscape (http://www.inkscape.org/) -->

<svg
   xmlns:dc="http://purl.org/dc/elements/1.1/"
   xmlns:cc="http://creativecommons.org/ns#"
   xmlns:rdf="http://www.w3.org/1999/02/22-rdf-syntax-ns#"
   xmlns:svg="http://www.w3.org/2000/svg"
   xmlns="http://www.w3.org/2000/svg"
   xmlns:sodipodi="http://sodipodi.sourceforge.net/DTD/sodipodi-0.dtd"
   xmlns:inkscape="http://www.inkscape.org/namespaces/inkscape"
   width="130.01791mm"
   height="38.523827mm"
   viewBox="0 0 130.01791 38.523827"
   version="1.1"
   id="svg8"
   sodipodi:docname="logo.svg"
   inkscape:version="0.92.3 (2405546, 2018-03-11)">
  <defs
     id="defs2" />
  <sodipodi:namedview
     id="base"
     pagecolor="#ffffff"
     bordercolor="#666666"
     borderopacity="1.0"
     inkscape:pageopacity="0.0"
     inkscape:pageshadow="2"
     inkscape:zoom="0.35"
     inkscape:cx="257.87947"
     inkscape:cy="27.186679"
     inkscape:document-units="mm"
     inkscape:current-layer="layer1"
     showgrid="false"
     inkscape:window-width="3200"
     inkscape:window-height="1753"
     inkscape:window-x="0"
     inkscape:window-y="0"
     inkscape:window-maximized="0" />
  <metadata
     id="metadata5">
    <rdf:RDF>
      <cc:Work
         rdf:about="">
        <dc:format>image/svg+xml</dc:format>
        <dc:type
           rdf:resource="http://purl.org/dc/dcmitype/StillImage" />
      </cc:Work>
    </rdf:RDF>
  </metadata>
  <g
     inkscape:label="Layer 1"
     inkscape:groupmode="layer"
     id="layer1"
     transform="translate(-39.870579,-117.50265)">
    <g
       aria-label="ΞMail"
       style="font-style:normal;font-variant:normal;font-weight:normal;font-stretch:normal;font-size:5.24579716px;line-height:1.25;font-family:arial;-inkscape-font-specification:arial;letter-spacing:0px;word-spacing:0px;fill:#333333;fill-opacity:1;stroke:none;stroke-width:0.13114493"
       id="text3715">
      <path
         d="m 40.767078,119.42372 h 27.689001 v 5.84005 H 40.767078 Z m 28.585499,30.25042 v 5.84005 H 39.870579 v -5.84005 z m -3.970208,-15.34293 v 5.84005 H 43.840788 v -5.84005 z"
         style="font-style:normal;font-variant:normal;font-weight:bold;font-stretch:normal;font-size:52.45797729px;font-family:arial;-inkscape-font-specification:'arial Bold';stroke-width:0.13114493;fill:#333333"
         id="path3736" />
      <path
         d="m 105.00761,155.51419 v -21.87457 q 0,-0.74281 0,-1.48562 0.0256,-0.74282 0.25614,-6.37795 -1.81861,6.89023 -2.68949,9.60534 l -6.506023,20.1328 h -5.378991 l -6.506019,-20.1328 -2.740725,-9.60534 q 0.307371,5.94251 0.307371,7.86357 v 21.87457 h -6.710932 v -36.09047 h 10.117627 l 6.45479,20.18402 0.563514,1.94669 1.229484,4.84109 1.613697,-5.78882 6.634087,-21.18298 h 10.0664 v 36.09047 z"
         style="font-style:normal;font-variant:normal;font-weight:bold;font-stretch:normal;font-size:52.45797729px;font-family:arial;-inkscape-font-specification:'arial Bold';stroke-width:0.13114493;fill:#333333"
         id="path3738" />
      <path
         d="m 125.34532,156.02648 q -4.02144,0 -6.27549,-2.17722 -2.25406,-2.20282 -2.25406,-6.17303 0,-4.30319 2.79196,-6.55725 2.81756,-2.25405 8.14533,-2.30528 l 5.96812,-0.10246 v -1.40878 q 0,-2.71511 -0.94773,-4.02144 -0.94773,-1.33194 -3.09932,-1.33194 -1.99792,0 -2.94564,0.92212 -0.92212,0.8965 -1.15264,2.99686 l -7.50498,-0.3586 q 0.69159,-4.04705 3.68845,-6.1218 3.02248,-2.10037 8.22218,-2.10037 5.25092,0 8.0941,2.58704 2.84318,2.58704 2.84318,7.35129 v 10.09201 q 0,2.3309 0.51229,3.2274 0.53789,0.87088 1.76738,0.87088 0.81965,0 1.58808,-0.15368 v 3.89336 q -0.64035,0.15369 -1.15264,0.28176 -0.51228,0.12807 -1.02457,0.20491 -0.51228,0.0768 -1.10141,0.12807 -0.56352,0.0512 -1.33194,0.0512 -2.71511,0 -4.02144,-1.33194 -1.28071,-1.33194 -1.53685,-3.91898 h -0.15369 q -3.02248,5.45584 -9.11867,5.45584 z m 8.37586,-13.34503 -3.68845,0.0512 q -2.5102,0.10246 -3.56038,0.56351 -1.05019,0.43545 -1.6137,1.35756 -0.5379,0.92211 -0.5379,2.45897 0,1.97229 0.8965,2.94564 0.92211,0.94772 2.43335,0.94772 1.69054,0 3.07371,-0.92211 1.40878,-0.92211 2.20283,-2.53581 0.79404,-1.63931 0.79404,-3.45792 z"
         style="font-style:normal;font-variant:normal;font-weight:bold;font-stretch:normal;font-size:52.45797729px;font-family:arial;-inkscape-font-specification:'arial Bold';stroke-width:0.13114493;fill:#333333"
         id="path3740" />
      <path
         d="m 148.142,122.8048 v -5.30215 h 7.1976 v 5.30215 z m 0,32.70939 v -27.71461 h 7.1976 v 27.71461 z"
         style="font-style:normal;font-variant:normal;font-weight:bold;font-stretch:normal;font-size:52.45797729px;font-family:arial;-inkscape-font-specification:'arial Bold';stroke-width:0.13114493;fill:#333333"
         id="path3742" />
      <path
         d="m 162.69089,155.51419 v -38.01154 h 7.19761 v 38.01154 z"
         style="font-style:normal;font-variant:normal;font-weight:bold;font-stretch:normal;font-size:52.45797729px;font-family:arial;-inkscape-font-specification:'arial Bold';stroke-width:0.13114493;fill:#333333"
         id="path3744" />
    </g>
  </g>
</svg>
